<svg id="Layer_1" data-name="Layer 1" xmlns="http://www.w3.org/2000/svg" viewBox="0 0 399.73 399.73"><defs><style>.cls-1{fill:none;}</style></defs><title>bike</title><path d="M310.67,316.2c-24.89-1.24-64-29.33-72.32-66.65-.33-1.47-.81-2.91-1.26-4.51-8.88,0-17.28-.22-25.66.08-5.35.19-8.93-1.83-11.95-6.18-11-15.85-22.18-31.55-33.33-47.29-9.8-13.84-19.64-27.65-30-42.24l-11,21.28c1.59,1.29,2.78,2.3,4,3.24,4.83,3.65,38.19,33.7,32.63,74.62-4.88,35.95-36.45,54.58-40.55,56.91-7.67,4.34-25.58,13-48.45,10.68a80.67,80.67,0,0,1-26.18-7.45A90.28,90.28,0,0,1,16,283.51c-8.34-10.59-12.48-23-15.7-35.79V225.9a20,20,0,0,0,1.28-3C10,188.86,31.67,168,65.42,159.65c15.4-3.82,30.57-1.53,45.54,3.94,1.19-2,2.32-3.65,3.23-5.42,11.35-21.91,22.54-43.9,34.14-65.67,2-3.74,5.77-6.52,8.72-9.75h32.72c3.76,2.3,7.46,4.72,6.06,10-1.49,5.66-6,6-10.79,6-5.68-.07-11.37.22-17-.09-4.17-.23-6.58,1.14-8.42,5-4.07,8.6-8.5,17-13.12,25.37-1.92,3.46-1.71,5.92.64,9.16,12.37,17.09,24.47,34.39,36.68,51.6,6.52,9.19,13.06,18.36,20.35,28.59l21.16-74.2c-3.78.62-6.61,1.23-9.47,1.53-5.86.61-10.39-2.45-11-7.61-.63-5.66,2.46-8.89,7.64-10.45,14.55-4.39,29.52-4.54,44.5-4.3,5.67.09,9,3.56,9,9.05s-3.28,8.77-8.95,9.14a55.1,55.1,0,0,1-8.84.19c-4.73-.46-6.76,1.56-8,6.06-4.4,16.41-9.19,32.73-13.83,49.08l-9.2,32.38H237a18,18,0,0,0,.81-2c.36-1.31.63-2.65.94-4,7.59-32.61,27.89-54,59.73-62.54,32.64-8.8,60.3,2,82.59,26.94,10.43,11.68,15.49,25.89,18.71,40.91v17.72a20.18,20.18,0,0,0-1.14,3.16c-4.64,25-18.05,44.27-40.22,55.94C337.33,316.54,330.33,317.18,310.67,316.2ZM257,245.07c1.21,31,30,54.1,65.48,53.09,34-1,58.88-28,58.2-63.25-.65-33.77-27.78-59-63-58.6-32.3.36-60.48,24.92-60.48,53.32,15.16,0,30.33.11,45.5-.14,1.88,0,3.92-1.81,5.57-3.17,7.39-6.08,14.61-5.8,21.15,1,6.23,6.46,6.33,13.35.28,19.86-6.63,7.14-14,7.49-21.59,1.13-1.49-1.24-3.24-3-4.89-3.08C287.83,245,272.43,245.07,257,245.07ZM116.78,186.89c-7.06,13.59-14,26.82-20.71,40.21-.82,1.64-.34,4.3.31,6.23,2.18,6.45-.77,11.09-5.14,15.07s-9.67,6.21-15.54,3c-5.59-3.07-10.26-7.26-10-14.23.24-7.15,5-11.28,11.06-14.26,2.11-1,4.85-2.08,5.84-3.91,6.9-12.74,13.41-25.69,20-38.58C76.67,167.93,39.17,182,25.4,209.08c-15,29.46-4,66.08,24.37,81.48,30.49,16.54,69.41,6.43,85.91-22.32C151.55,240.59,143.12,202.85,116.78,186.89Z"/><rect class="cls-1" width="399.73" height="399.73"/></svg>