<svg id="Layer_1" data-name="Layer 1" xmlns="http://www.w3.org/2000/svg" viewBox="0 0 400 400"><defs><style>.cls-1{fill:none;}</style></defs><title>ski</title><path d="M152.42,117.21,315.94,22.84l4.51,7.49c-3.52,2.09-6.49,3.91-9.51,5.65q-76.89,44.39-153.86,88.64c-5.58,3.19-9.43,6.75-10.05,13.3C145.18,157.39,135,169.72,117,177.88S82.23,197,64.88,206.56c-10.84,6-21.11,4-26.45-4.84-5.63-9.37-2.32-19.66,8.81-26,18-10.25,36-20.44,54.29-30.22,5.67-3,8.82-6.79,10.33-13.17,5.09-21.59,10.65-43.07,16.4-64.49,1.27-4.72,3.2-9.81,6.38-13.33,5.49-6.07,13-7.13,20.29-3.1,7.49,4.14,11,10.85,9,19.4C160.47,85.75,156.57,100.58,152.42,117.21Z"/><path d="M197.81,173c14.19,24.64,27.89,48.42,41.57,72.23a67.9,67.9,0,0,1,5,9.39,17.71,17.71,0,0,1-8.12,22.08c-7.61,4-16.58,2.08-22.23-5a54,54,0,0,1-4.31-6.71q-24.58-42.65-49.11-85.33c-8.36-14.58-6.11-22.94,8.5-31.34,28.71-16.49,57.42-33,86.24-49.3,10.07-5.69,20.37-3.21,25.52,5.51s2.29,18.75-7.49,25c-1.74,1.12-3.57,2.1-5.36,3.13q-31.19,17.82-62.38,35.64C203.34,169.62,201.11,171,197.81,173Z"/><path d="M17.26,87a37.78,37.78,0,0,1,75.55-.14c.16,21.18-17.19,38.58-38.17,38.3A37.88,37.88,0,0,1,17.26,87Z"/><path d="M55.25,356.45c3.84-3.47,6.48-4.8,10.38,0,10.51,13,22.65,15.13,37.66,6.83,24.59-13.59,49.16-27.22,73.46-41.31q96.7-56.09,193.17-112.58c2.53-1.48,5.11-2.87,8.32-4.67l4.49,6.45a22.53,22.53,0,0,1-3,2.71C288.55,266.6,197.52,319.47,106.11,371.71,88.69,381.67,66.88,378.76,55.25,356.45Z"/><rect class="cls-1" width="400" height="400"/></svg>