<svg id="Layer_1" data-name="Layer 1" xmlns="http://www.w3.org/2000/svg" viewBox="0 0 400 400"><defs><style>.cls-1{fill:none;}</style></defs><title>smartPhone</title><path d="M309.58,24.92V375.07c-5.21,14.13-11,18.15-26.51,18.15q-82.66,0-165.31,0c-19.67,0-27.35-7.74-27.35-27.54q0-165.63,0-331.27a63.44,63.44,0,0,1,1-10.92c1.48-8.38,7-13,14.87-15.33,1.63-.48,3.26-.93,4.89-1.4H286.24C297.31,8.59,306.89,12.33,309.58,24.92ZM296.66,190q0-62.87,0-125.73c0-8.21-1-9.22-9.35-9.22q-86.85,0-173.69,0c-8.77,0-10,1.25-10,10.14q0,125.08,0,250.17c0,8.93,1.23,10.21,10,10.21q86.85,0,173.69,0c8.4,0,9.39-1,9.39-9.19Q296.67,253.15,296.66,190ZM218.8,356.08a18.15,18.15,0,1,0-36.31,0,18.15,18.15,0,1,0,36.31,0Zm45-.34A11.78,11.78,0,0,0,253,344.11c-6.08-.34-11.78,5-12,11.13a11.78,11.78,0,0,0,10.8,11.63C257.89,367.23,263.65,361.87,263.82,355.74ZM148,367.12a11.41,11.41,0,0,0,.55-22.8c-5.78-.21-11.17,4.88-11.44,10.8A11.51,11.51,0,0,0,148,367.12Z"/><rect class="cls-1" width="400" height="400"/></svg>